<svg width="48" height="89" viewBox="0 0 48 89" fill="none" xmlns="http://www.w3.org/2000/svg">
<path d="M18.4415 17.8466L13.6569 0H15.4431L20.2277 17.8466H18.4415Z" fill="white"/>
<path d="M25.966 16.8578H24.1479V2.28067H25.966V16.8578Z" fill="white"/>
<path d="M34.7413 0L30.4033 17.8466H28.617L32.9391 0H34.7413Z" fill="white"/>
<path d="M6.55493 32.5166V34.0477H0V32.5166H6.55493Z" fill="white"/>
<path d="M13.1571 42.0221C12.1151 41.0226 11.3123 39.752 10.7488 38.2103C10.1959 36.6686 9.91949 35.0153 9.91949 33.2503C9.91949 31.4427 10.2172 29.7362 10.8126 28.1307C11.4187 26.5252 12.3065 25.2015 13.4761 24.1595H15.358V24.3349C14.1353 25.462 13.2156 26.8123 12.5989 28.3859C11.9822 29.9595 11.6739 31.581 11.6739 33.2503C11.6739 34.8558 11.9609 36.4081 12.5351 37.9073C13.1092 39.4065 13.9439 40.7196 15.039 41.8466V42.0221H13.1571Z" fill="white"/>
<path d="M26.1865 28.2264L26.9042 29.5023L24.7192 30.3157L26.9042 31.1291L26.1705 32.4369L24.3524 31.0015L24.6873 33.3141H23.22L23.523 31.0015L21.7049 32.4688L20.9393 31.1131L23.1084 30.2998L20.9393 29.5183L21.673 28.2105L23.539 29.6459L23.22 27.3173H24.7032L24.3524 29.6459L26.1865 28.2264Z" fill="white"/>
<path d="M32.8637 42.0221V41.8466C33.9589 40.7196 34.7935 39.4065 35.3677 37.9073C35.9418 36.4081 36.2289 34.8558 36.2289 33.2503C36.2289 31.581 35.9206 29.9595 35.3039 28.3859C34.6872 26.8123 33.7675 25.462 32.5448 24.3349V24.1595H34.4267C35.5963 25.2015 36.4788 26.5252 37.0742 28.1307C37.6803 29.7362 37.9833 31.4427 37.9833 33.2503C37.9833 35.0153 37.7015 36.6686 37.138 38.2103C36.5851 39.752 35.7877 41.0226 34.7457 42.0221H32.8637Z" fill="white"/>
<path d="M47.9064 32.5166V34.0477H41.3515V32.5166H47.9064Z" fill="white"/>
<path d="M18.1385 48L13.8004 65.8466H12.0141L16.3362 48H18.1385Z" fill="white"/>
<path d="M22.7265 64.8578H20.9083V50.2807H22.7265V64.8578Z" fill="white"/>
<path d="M31.8048 65.8466L27.0202 48H28.8064L33.591 65.8466H31.8048Z" fill="white"/>
<path d="M22.8199 88.8578H21.0017V74.2807H22.8199V88.8578Z" fill="white"/>
</svg>
